<svg xmlns="http://www.w3.org/2000/svg" width="24" height="24" fill="none" viewBox="0 0 24 24" id="apple-pay">
  <path fill="#000" fill-rule="evenodd" d="M11.6199 6.57359C10.4554 5.99792 9.12461 5.8531 7.8635 6.16481C5.00686 6.87088 3 9.43416 3 12.3768V12.9799C3 16.4634 4.64999 19.741 7.44814 21.8158L8.12383 22.3168C9.02792 22.9872 10.2312 23.0952 11.2401 22.5964L12.0665 22.1879C12.3577 22.044 12.7006 22.0504 12.9861 22.2051L13.7868 22.639C14.8265 23.2025 16.1002 23.1025 17.0394 22.3838L17.789 21.8101C19.0975 20.8088 20.1457 19.5416 20.8812 18.1149C21.0312 17.8237 21.0292 17.4776 20.8758 17.1882C20.7223 16.8988 20.4368 16.7029 20.1116 16.6638C18.4981 16.4699 17.2241 15.0679 17.2241 13.3435C17.2241 11.6317 18.4797 10.2374 20.0765 10.0276C20.433 9.98078 20.7369 9.74614 20.8724 9.41309C21.008 9.08004 20.9543 8.69986 20.7318 8.41738C19.874 7.32839 18.6621 6.51623 17.2403 6.16481C15.9792 5.8531 14.6485 5.99792 13.4839 6.57359L12.5519 7.03432L11.6199 6.57359Z" clip-rule="evenodd"></path>
  <path fill="#000" fill-rule="evenodd" d="M14 1C12.3431 1 11 2.34315 11 4V5C11 5.55228 11.4477 6 12 6H13C14.6569 6 16 4.65685 16 3V2C16 1.44772 15.5523 1 15 1H14Z" clip-rule="evenodd"></path>
</svg>
