<svg xmlns="http://www.w3.org/2000/svg" width="24" height="24" fill="none" id="apple-pay">
  <path fill="#000" fill-rule="evenodd" d="M10.734 8.366a3.5 3.5 0 0 0-2.39-.26A4.399 4.399 0 0 0 5 12.376v.604a9 9 0 0 0 3.64 7.23l.675.5a1 1 0 0 0 1.039.093l.443.897-.443-.896.826-.409a3 3 0 0 1 2.759.052l.8.434a1 1 0 0 0 1.085-.085l.75-.574a8.996 8.996 0 0 0 1.879-1.952 5.347 5.347 0 0 1-3.229-4.926 5.354 5.354 0 0 1 2.788-4.714c-.38-.233-.8-.412-1.252-.524a3.5 3.5 0 0 0-2.39.26l-1.375.68a1 1 0 0 1-.886 0l-1.375-.68Zm-2.87-2.201a5.5 5.5 0 0 1 3.756.409l.932.46.932-.46a5.5 5.5 0 0 1 3.756-.41 6.39 6.39 0 0 1 3.492 2.253 1 1 0 0 1-.655 1.61c-1.597.21-2.853 1.605-2.853 3.317 0 1.724 1.274 3.126 2.888 3.32a1 1 0 0 1 .77 1.45 10.995 10.995 0 0 1-3.093 3.696l-.75.574a3 3 0 0 1-3.252.255l-.8-.434a1 1 0 0 0-.92-.017l-.827.408a3 3 0 0 1-3.116-.28l-.676-.5A11 11 0 0 1 3 12.98v-.603a6.399 6.399 0 0 1 4.864-6.212Z" clip-rule="evenodd"></path>
  <path fill="#000" fill-rule="evenodd" d="M13 4a1 1 0 0 1 1-1 1 1 0 0 1-1 1Zm-2 0a3 3 0 0 1 3-3h1a1 1 0 0 1 1 1v1a3 3 0 0 1-3 3h-1a1 1 0 0 1-1-1V4Z" clip-rule="evenodd"></path>
</svg>
