<svg width="25" height="25" viewBox="0 0 25 25" fill="none" xmlns="http://www.w3.org/2000/svg">
<g clip-path="url(#clip0_529_1811)">
<path d="M22.7817 0.842346H1.34C0.6 0.842346 0 1.41835 0 2.12875V4.41515C0 5.12555 0.6 5.70235 1.34 5.70235H22.7817C23.5217 5.70235 24.1217 5.12635 24.1217 4.41515V2.12875C24.1217 1.41835 23.5217 0.842346 22.7817 0.842346Z" fill="#09A5DB"/>
<path d="M22.7817 13.6031H1.34C0.6 13.6031 0 14.1783 0 14.8895V17.1775C0 17.8863 0.6 18.4623 1.34 18.4623H22.7817C23.5217 18.4623 24.1217 17.8863 24.1217 17.1767V14.8887C24.1217 14.1791 23.5217 13.6031 22.7817 13.6031Z" fill="#09A5DB"/>
<path d="M13.4008 19.9824H1.34C0.6 19.9824 0 20.5584 0 21.2696V23.556C0 24.2664 0.6 24.8424 1.34 24.8424H13.4008C14.1408 24.8424 14.7408 24.2664 14.7408 23.556V21.2704C14.7412 21.1013 14.7067 20.9338 14.6395 20.7775C14.5723 20.6212 14.4737 20.4791 14.3492 20.3595C14.2247 20.2398 14.0769 20.1449 13.9141 20.0802C13.7514 20.0155 13.577 19.9823 13.4008 19.9824V19.9824Z" fill="#09A5DB"/>
<path d="M24.1217 7.22235H1.34C0.6 7.22235 0 7.79835 0 8.50875V10.7968C0 11.5056 0.6 12.0824 1.34 12.0824H24.1217C24.8625 12.0824 25.4608 11.5064 25.4608 10.796V8.50795C25.4608 7.79835 24.8625 7.22235 24.1225 7.22235H24.1217Z" fill="#09A5DB"/>
<path d="M22.7817 0.842346H1.34C0.6 0.842346 0 1.41835 0 2.12875V4.41515C0 5.12555 0.6 5.70235 1.34 5.70235H22.7817C23.5217 5.70235 24.1217 5.12635 24.1217 4.41515V2.12875C24.1217 1.41835 23.5217 0.842346 22.7817 0.842346Z" fill="#09A5DB"/>
</g>
<defs>
<clipPath id="clip0_529_1811">
<rect width="25" height="25" fill="white"/>
</clipPath>
</defs>
</svg>
